<?xml version="1.0" encoding="utf-8"?>
<!-- Generator: Adobe Illustrator 26.5.0, SVG Export Plug-In . SVG Version: 6.00 Build 0)  -->
<svg version="1.1" id="Livello_1" xmlns="http://www.w3.org/2000/svg" xmlns:xlink="http://www.w3.org/1999/xlink" x="0px" y="0px"
	 viewBox="0 0 60 40" style="enable-background:new 0 0 60 40;" xml:space="preserve">
<style type="text/css">
	.st0{clip-path:url(#SVGID_00000144321612108529110500000013942806655721454733_);}
	.st1{fill-rule:evenodd;clip-rule:evenodd;fill:#ED5B2D;}
	.st2{clip-path:url(#SVGID_00000052098889194579070940000003525875956736010431_);}
	.st3{clip-path:url(#SVGID_00000102516129583227532250000011551417543023188638_);}
	.st4{clip-path:url(#SVGID_00000036248305144697705100000001972241387012686771_);}
	.st5{clip-path:url(#SVGID_00000068663409717388520550000004086791309216529557_);}
	.st6{clip-path:url(#SVGID_00000042717222930903567650000015853900938942666130_);}
	.st7{fill:#FFFFFF;}
</style>
<g id="surface1">
	<g>
		<defs>
			<rect id="SVGID_1_" x="6.6" y="16" width="2.9" height="1.7"/>
		</defs>
		<clipPath id="SVGID_00000042734956782209568300000016341231686005297307_">
			<use xlink:href="#SVGID_1_"  style="overflow:visible;"/>
		</clipPath>
		<g style="clip-path:url(#SVGID_00000042734956782209568300000016341231686005297307_);">
			<path class="st1" d="M9.5,16.9c-0.1-0.5-0.5-0.8-0.9-0.8h-1c-0.5,0-0.8,0.4-0.7,0.8c0.1,0.5,0.5,0.8,0.9,0.8h1
				C9.2,17.7,9.6,17.3,9.5,16.9z"/>
		</g>
	</g>
	<g>
		<defs>
			<rect id="SVGID_00000003099228546699573120000013073954045687848864_" x="16" y="1.8" width="21.1" height="14.6"/>
		</defs>
		<clipPath id="SVGID_00000057850963015669233640000016550341699653580220_">
			<use xlink:href="#SVGID_00000003099228546699573120000013073954045687848864_"  style="overflow:visible;"/>
		</clipPath>
		<g style="clip-path:url(#SVGID_00000057850963015669233640000016550341699653580220_);">
			<path class="st1" d="M26.3,1.8l2.5,5.5c0,0.1,0.1,0.2,0.2,0.2l7.4,0.6c0.2,0,0.4-0.2,0.3-0.4l-1.9-4.2c0-0.1-0.1-0.1-0.2-0.2
				L26.3,1.8L26.3,1.8z M18,3.4l-2,4.2c-0.1,0.2,0.1,0.4,0.3,0.4l7.4-0.8c0.1,0,0.2-0.1,0.2-0.2l2.4-5.4l-8.1,1.5
				C18.1,3.3,18,3.3,18,3.4z M26.3,6.2v8.6l6.8-1.3V9.3c0-0.2,0.2-0.3,0.3-0.3l0.8,0.1c0.1,0,0.3,0.1,0.3,0.3v4.9
				c0,0.1-0.1,0.3-0.2,0.3l-7.5,1.6c-0.4,0.1-0.7,0.1-1.1,0l-7.4-1.6c-0.1,0-0.2-0.1-0.2-0.3L18,9.5c0-0.2,0.1-0.3,0.3-0.3l6.3-0.6
				c0.1,0,0.2-0.1,0.2-0.2l0.9-2.3C25.9,5.8,26.4,5.9,26.3,6.2L26.3,6.2z"/>
		</g>
	</g>
	<g>
		<defs>
			<rect id="SVGID_00000053521644717595986820000002616875840717894023_" x="12.2" y="8" width="39.4" height="16.7"/>
		</defs>
		<clipPath id="SVGID_00000150087589207994860010000004517054377220070017_">
			<use xlink:href="#SVGID_00000053521644717595986820000002616875840717894023_"  style="overflow:visible;"/>
		</clipPath>
		<g style="clip-path:url(#SVGID_00000150087589207994860010000004517054377220070017_);">
			<path class="st1" d="M19.4,19.5h2.9c0.5,0,1,0.4,1,0.9c0.1,0.5-0.3,0.9-0.8,0.9h-9.3c-0.4,0-0.8,0.4-0.7,0.8
				c0.1,0.4,0.5,0.8,0.9,0.8h4.9l0,1.7h3.2c0.2-1.7,1.8-3,3.6-3c1.7,0,3.2,1.3,3.4,3h5.4v0H37c0.4,0,0.8-0.2,0.9-0.6l0.2-0.6
				c0.6-1.3,1.9-2.2,3.4-2.2c1.3,0,2.5,0.7,3,1.8l0.5,1c0.1,0.3,0.5,0.5,0.8,0.5h4.4c0.4,0,0.8-0.3,0.9-0.7l0.3-0.9
				c0.2-0.6-0.1-1.2-0.7-1.5l0.2-3.7c0.1-1.5-0.3-2.9-1-4.2L48.1,11c-1.3-1.9-3.5-3-5.9-3l-3.2,0l-1.4,0C37.5,8.6,37,9,36.4,8.9
				l-1.1-0.1c0.1,0.2,0.2,0.4,0.2,0.6v4.9c0,0.5-0.4,1-0.9,1.1l-7.5,1.6c-0.5,0.1-1,0.1-1.5,0l-2.4-0.5l-4,0l-0.9,0l-2.9,0
				c-0.4,0-0.8,0.4-0.7,0.8c0.1,0.4,0.5,0.8,0.9,0.8h2.6l0,1.3L19.4,19.5L19.4,19.5z M39,14c-0.4-0.1-0.7-0.5-0.7-0.9l0.1-2.2
				c0-0.5,0.5-0.9,1-0.9l4.2,0.2c1,0,1.9,0.6,2.4,1.4l1.7,2.9c0.3,0.5-0.2,1.1-0.8,1L39,14L39,14z"/>
		</g>
	</g>
	<path class="st1" d="M16.3,12.8c0.1,0.4,0.5,0.8,0.9,0.8h0.1l0-1.6H17C16.6,12,16.2,12.4,16.3,12.8L16.3,12.8z"/>
	<path class="st1" d="M14.4,11.9c0.5,0,0.8-0.4,0.7-0.8c-0.1-0.5-0.5-0.8-0.9-0.8h-1c-0.5,0-0.8,0.4-0.7,0.8
		c0.1,0.5,0.5,0.8,0.9,0.8H14.4z"/>
	<path class="st1" d="M12.9,14.1h-1c-0.5,0-0.8,0.4-0.7,0.8c0.1,0.5,0.5,0.8,0.9,0.8h1.1c0.5,0,0.8-0.4,0.7-0.8
		C13.8,14.5,13.4,14.1,12.9,14.1z"/>
	<g>
		<defs>
			<rect id="SVGID_00000083781655416848372920000005427205820876006578_" x="6.6" y="16" width="2.9" height="1.7"/>
		</defs>
		<clipPath id="SVGID_00000055680825123866600740000000052720736669581492_">
			<use xlink:href="#SVGID_00000083781655416848372920000005427205820876006578_"  style="overflow:visible;"/>
		</clipPath>
		<g style="clip-path:url(#SVGID_00000055680825123866600740000000052720736669581492_);">
			<path class="st1" d="M9.5,16.9c-0.1-0.5-0.5-0.8-0.9-0.8h-1c-0.5,0-0.8,0.4-0.7,0.8c0.1,0.5,0.5,0.8,0.9,0.8h1
				C9.2,17.7,9.6,17.3,9.5,16.9z"/>
		</g>
	</g>
	<path class="st1" d="M10.3,19.3H9.3c-0.5,0-0.8,0.4-0.7,0.8C8.6,20.6,9,21,9.5,21h1c0.5,0,0.8-0.4,0.7-0.8
		C11.2,19.7,10.8,19.3,10.3,19.3z"/>
	<path class="st1" d="M14.6,23.8h-1c-0.5,0-0.8,0.4-0.7,0.8c0.1,0.5,0.5,0.8,0.9,0.8h1c0.5,0,0.8-0.4,0.7-0.8
		C15.4,24.2,15,23.8,14.6,23.8z"/>
	<g>
		<defs>
			<rect id="SVGID_00000078755038081410753380000008976751606430727561_" x="22.2" y="22.3" width="5.5" height="5.3"/>
		</defs>
		<clipPath id="SVGID_00000119108692586271733460000003831712899402737327_">
			<use xlink:href="#SVGID_00000078755038081410753380000008976751606430727561_"  style="overflow:visible;"/>
		</clipPath>
		<g style="clip-path:url(#SVGID_00000119108692586271733460000003831712899402737327_);">
			<path class="st1" d="M25,22.4c-1.5,0-2.8,1.1-2.8,2.6c-0.1,1.4,1.1,2.6,2.6,2.6s2.8-1.1,2.8-2.6C27.7,23.6,26.5,22.4,25,22.4z"/>
		</g>
	</g>
	<g>
		<defs>
			<rect id="SVGID_00000032637248555491132000000006025145438556669088_" x="38.4" y="22.3" width="5.6" height="5.3"/>
		</defs>
		<clipPath id="SVGID_00000131367427370965280440000012454644782333388979_">
			<use xlink:href="#SVGID_00000032637248555491132000000006025145438556669088_"  style="overflow:visible;"/>
		</clipPath>
		<g style="clip-path:url(#SVGID_00000131367427370965280440000012454644782333388979_);">
			<path class="st1" d="M41.3,22.4c-1.5,0-2.8,1.1-2.8,2.6c-0.1,1.4,1.1,2.6,2.6,2.6s2.8-1.1,2.8-2.6C44,23.6,42.8,22.4,41.3,22.4z"
				/>
		</g>
	</g>
	<path class="st7" d="M8.7,32.2c0,0.1-0.1,0.2-0.2,0.2H4.9c0,0,0,0,0,0s0,0,0,0.1l-0.2,1.8c0,0,0,0.1,0.1,0.1H7
		c0.1,0,0.2,0.1,0.2,0.2l-0.1,1c0,0.1-0.1,0.2-0.2,0.2H4.5c0,0-0.1,0-0.1,0.1l-0.2,1.8c0,0.1,0,0.1,0.1,0.1h3.6
		C8,37.6,8,37.7,8,37.8l-0.1,1c0,0.1-0.1,0.2-0.2,0.2h-5c-0.1,0-0.2-0.1-0.2-0.2l0.9-7.6C3.5,31,3.5,31,3.6,31h5
		c0.1,0,0.2,0.1,0.2,0.2L8.7,32.2z"/>
	<path class="st7" d="M9.1,39C9,39,9,38.9,9,38.8l0.9-7.6C9.9,31,10,31,10.1,31h1.2c0.1,0,0.2,0.1,0.2,0.2l-0.8,6.4
		c0,0.1,0,0.1,0.1,0.1h3.6c0.1,0,0.2,0.1,0.2,0.2l-0.1,1c0,0.1-0.1,0.2-0.2,0.2H9.1z"/>
	<path class="st7" d="M15.5,39c-0.1,0-0.2-0.1-0.2-0.2l0.9-7.6c0-0.1,0.1-0.2,0.2-0.2h1.2c0.1,0,0.2,0.1,0.2,0.2l-0.8,6.4
		c0,0.1,0,0.1,0.1,0.1h3.6c0.1,0,0.2,0.1,0.2,0.2l-0.1,1c0,0.1-0.1,0.2-0.2,0.2H15.5z"/>
	<path class="st7" d="M27.9,32.2c0,0.1-0.1,0.2-0.2,0.2h-3.6c0,0,0,0,0,0c0,0,0,0,0,0.1l-0.2,1.8c0,0,0,0.1,0.1,0.1h2.3
		c0.1,0,0.2,0.1,0.2,0.2l-0.1,1c0,0.1-0.1,0.2-0.2,0.2h-2.3c-0.1,0-0.1,0-0.1,0.1l-0.2,1.8c0,0.1,0,0.1,0.1,0.1h3.6
		c0.1,0,0.2,0.1,0.2,0.2l-0.1,1c0,0.1-0.1,0.2-0.2,0.2h-5c-0.1,0-0.2-0.1-0.2-0.2l0.9-7.6c0-0.1,0.1-0.2,0.2-0.2h5
		c0.1,0,0.2,0.1,0.2,0.2L27.9,32.2z"/>
	<path class="st7" d="M36.6,32.2c0,0.1-0.1,0.2-0.2,0.2h-3.6c0,0,0,0,0,0s0,0,0,0.1l-0.2,1.8c0,0,0,0.1,0.1,0.1h2.3
		c0.1,0,0.2,0.1,0.2,0.2l-0.1,1c0,0.1-0.1,0.2-0.2,0.2h-2.3c0,0-0.1,0-0.1,0.1l-0.2,1.8c0,0.1,0,0.1,0.1,0.1h3.6
		c0.1,0,0.2,0.1,0.2,0.2l-0.1,1c0,0.1-0.1,0.2-0.2,0.2h-5c-0.1,0-0.2-0.1-0.2-0.2l0.9-7.6c0-0.1,0.1-0.2,0.2-0.2h5
		c0.1,0,0.2,0.1,0.2,0.2L36.6,32.2z"/>
	<path class="st7" d="M41.2,39C41.1,39,41,39,41,38.9l-1-3.1c0,0,0-0.1-0.1-0.1h-1c0,0-0.1,0-0.1,0.1l-0.4,3.1
		c0,0.1-0.1,0.2-0.2,0.2h-1.2c-0.1,0-0.2-0.1-0.2-0.2l0.9-7.6c0-0.1,0.1-0.2,0.2-0.2h3.1c0.6,0,1.2,0.2,1.5,0.6
		c0.4,0.4,0.6,0.9,0.6,1.5c0,0.1,0,0.2,0,0.4c-0.1,0.5-0.3,1-0.6,1.3s-0.7,0.6-1.1,0.8c0,0,0,0,0,0c0,0,0,0,0,0l1.1,3.2
		c0,0,0,0,0,0.1s0,0.1,0,0.1s-0.1,0-0.1,0H41.2z M39.3,32.4C39.3,32.4,39.3,32.4,39.3,32.4l-0.3,2c0,0.1,0,0.1,0.1,0.1h1.4
		c0.3,0,0.6-0.1,0.9-0.3s0.3-0.5,0.3-0.8c0-0.3-0.1-0.5-0.3-0.7c-0.2-0.2-0.4-0.2-0.7-0.2H39.3z"/>
	<path class="st7" d="M48,39c-0.1,0-0.2-0.1-0.2-0.2l-1-3.1c0,0,0-0.1-0.1-0.1h-1c0,0-0.1,0-0.1,0.1l-0.4,3.1c0,0.1-0.1,0.2-0.2,0.2
		h-1.2c-0.1,0-0.2-0.1-0.2-0.2l0.9-7.6c0-0.1,0.1-0.2,0.2-0.2H48c0.7,0,1.2,0.2,1.5,0.6c0.4,0.4,0.6,0.9,0.6,1.5c0,0.1,0,0.2,0,0.4
		c-0.1,0.5-0.3,1-0.6,1.3s-0.7,0.6-1.1,0.8c0,0,0,0,0,0s0,0,0,0l1.1,3.2c0,0,0,0,0,0.1s0,0.1,0,0.1c0,0-0.1,0-0.1,0H48z M46.2,32.4
		C46.1,32.4,46.1,32.4,46.2,32.4l-0.3,2c0,0.1,0,0.1,0.1,0.1h1.4c0.3,0,0.6-0.1,0.9-0.3c0.2-0.2,0.3-0.5,0.3-0.8
		c0-0.3-0.1-0.5-0.3-0.7c-0.2-0.2-0.4-0.2-0.7-0.2H46.2z"/>
	<path class="st7" d="M56.8,32.2c0,0.1-0.1,0.2-0.2,0.2H53c0,0,0,0,0,0s0,0,0,0.1l-0.2,1.8c0,0,0,0.1,0.1,0.1h2.3
		c0.1,0,0.2,0.1,0.2,0.2l-0.1,1c0,0.1-0.1,0.2-0.2,0.2h-2.3c0,0-0.1,0-0.1,0.1l-0.2,1.8c0,0.1,0,0.1,0.1,0.1H56
		c0.1,0,0.2,0.1,0.2,0.2l-0.1,1c0,0.1-0.1,0.2-0.2,0.2h-5c-0.1,0-0.2-0.1-0.2-0.2l0.9-7.6c0-0.1,0.1-0.2,0.2-0.2h5
		c0.1,0,0.2,0.1,0.2,0.2L56.8,32.2z"/>
</g>
</svg>
